<?xml version="1.0" encoding="UTF-8"?><svg id="b" xmlns="http://www.w3.org/2000/svg" viewBox="0 0 872.49 162.29"><g id="c"><path d="M812.02,129.35c-4.84,0-9.23-1.21-13.18-3.63-3.95-2.42-7.1-5.67-9.48-9.75-2.38-4.08-3.56-8.63-3.56-13.65v-42.62c0-4.84,1.19-9.3,3.56-13.38,2.37-4.08,5.56-7.33,9.55-9.75,3.99-2.42,8.36-3.63,13.11-3.63s9.39,1.19,13.38,3.56c3.99,2.38,7.15,5.58,9.48,9.61,2.33,4.03,3.5,8.56,3.5,13.58v6.19c0,.36-.22.54-.67.54h-15.06c-.36,0-.54-.18-.54-.54v-5.11c0-3.41-.96-6.23-2.89-8.47-1.93-2.24-4.33-3.36-7.19-3.36-2.6,0-4.91,1.08-6.92,3.23-2.02,2.15-3.03,4.66-3.03,7.53v42.62c0,2.96.98,5.49,2.96,7.6,1.97,2.11,4.3,3.16,6.99,3.16,2.87,0,5.26-1.03,7.19-3.09,1.93-2.06,2.89-4.62,2.89-7.66v-6.59h-9.41c-.45,0-.67-.22-.67-.67v-15.06c0-.45.22-.67.67-.67h25.14c.36,0,.54.23.54.67v22.32c0,5.02-1.19,9.57-3.56,13.65-2.38,4.08-5.54,7.33-9.48,9.75-3.95,2.42-8.38,3.63-13.31,3.63Z"/><path d="M37.73,150.41c-6.97,0-13.29-1.74-18.96-5.22-5.68-3.48-10.22-8.16-13.64-14.03-3.42-5.87-5.13-12.41-5.13-19.64v-61.33c0-6.97,1.71-13.38,5.13-19.25,3.42-5.87,8-10.54,13.74-14.03,5.74-3.48,12.03-5.22,18.86-5.22s13.51,1.71,19.25,5.13c5.74,3.42,10.28,8.03,13.64,13.83,3.35,5.8,5.03,12.32,5.03,19.54v8.9c0,.52-.32.77-.97.77h-21.67c-.52,0-.77-.26-.77-.77v-7.35c0-4.9-1.39-8.96-4.16-12.19-2.78-3.22-6.22-4.84-10.35-4.84-3.74,0-7.06,1.55-9.96,4.64s-4.35,6.71-4.35,10.83v61.33c0,4.26,1.42,7.9,4.26,10.93,2.84,3.03,6.19,4.55,10.06,4.55,4.13,0,7.58-1.48,10.35-4.45,2.77-2.97,4.16-6.64,4.16-11.03v-9.48h-13.54c-.65,0-.97-.32-.97-.97v-21.67c0-.64.32-.97.97-.97h36.18c.51,0,.77.32.77.97v32.12c0,7.23-1.71,13.77-5.13,19.64-3.42,5.87-7.97,10.54-13.64,14.03-5.68,3.48-12.06,5.22-19.15,5.22Z"/><path d="M80.49,148.48c-.52,0-.77-.32-.77-.97l.39-132.92c0-.51.26-.77.77-.77h39.08c6.97,0,13.38,1.71,19.25,5.13,5.87,3.42,10.54,8,14.03,13.74,3.48,5.74,5.22,12.22,5.22,19.45,0,4.77-.71,9.06-2.13,12.87-1.42,3.81-3.1,7.03-5.03,9.67-1.93,2.65-3.68,4.61-5.22,5.9,6.97,7.74,10.45,16.83,10.45,27.28l.19,39.66c0,.65-.32.97-.97.97h-21.86c-.52,0-.77-.19-.77-.58v-40.05c0-4.64-1.64-8.67-4.93-12.09-3.29-3.42-7.32-5.13-12.09-5.13h-12.77l-.19,56.88c0,.65-.26.97-.77.97h-21.86ZM103.32,67.41h16.64c4,0,7.55-1.48,10.64-4.45,3.1-2.97,4.64-6.58,4.64-10.83s-1.52-7.67-4.55-10.64c-3.03-2.97-6.61-4.45-10.74-4.45h-16.64v30.38Z"/><path d="M164.07,148.48c-.52,0-.77-.32-.77-.97l.19-132.92c0-.51.26-.77.77-.77h62.11c.51,0,.77.32.77.97v21.67c0,.52-.26.77-.77.77h-39.66v30.18h39.66c.51,0,.77.26.77.77l.19,21.86c0,.52-.26.77-.77.77h-39.86v33.86h39.86c.51,0,.77.32.77.97v22.06c0,.52-.26.77-.77.77h-62.49Z"/><path d="M235.66,148.48c-.52,0-.77-.32-.77-.97l.19-132.92c0-.51.26-.77.77-.77h62.11c.51,0,.77.32.77.97v21.67c0,.52-.26.77-.77.77h-39.66v30.18h39.66c.51,0,.77.26.77.77l.19,21.86c0,.52-.26.77-.77.77h-39.86v33.86h39.86c.51,0,.77.32.77.97v22.06c0,.52-.26.77-.77.77h-62.49Z"/><path d="M308.21,148.48c-1.03,0-1.55-.45-1.55-1.35l-.19-131.76c0-1.03.51-1.55,1.55-1.55h17.41l32.7,76.23-.97-74.68c0-1.03.58-1.55,1.74-1.55h19.15c.77,0,1.16.52,1.16,1.55l.19,131.95c0,.77-.32,1.16-.97,1.16h-17.03l-33.47-71.2,1.35,69.65c0,1.03-.58,1.55-1.74,1.55h-19.35Z"/><path d="M407.41,148.48c-.52,0-.77-.32-.77-.97l.39-132.92c0-.51.26-.77.77-.77h37.15c7.35,0,13.93,1.77,19.73,5.32,5.8,3.55,10.38,8.22,13.74,14.03,3.35,5.8,5.03,12.13,5.03,18.96,0,5.55-1.26,10.71-3.77,15.48-2.52,4.77-5.51,8.64-9,11.61,3.74,3.74,6.64,8.06,8.71,12.96,2.06,4.9,3.1,10.06,3.1,15.48,0,7.48-1.81,14.32-5.42,20.51-3.61,6.19-8.48,11.13-14.61,14.8-6.13,3.68-12.93,5.51-20.41,5.51h-34.63ZM430.05,124.87h12c4.64,0,8.64-1.71,12-5.13,3.35-3.42,5.03-7.45,5.03-12.09s-1.68-8.64-5.03-12c-3.36-3.35-7.35-5.03-12-5.03h-11.8l-.19,34.25ZM430.24,67.21h14.7c4.51,0,8.16-1.58,10.93-4.74,2.77-3.16,4.16-6.61,4.16-10.35,0-4.13-1.48-7.71-4.45-10.74-2.97-3.03-6.51-4.55-10.64-4.55h-14.7v30.38Z"/><path d="M487.51,148.48c-.52,0-.77-.32-.77-.97l.19-132.92c0-.51.26-.77.77-.77h62.11c.51,0,.77.32.77.97v21.67c0,.52-.26.77-.77.77h-39.66v30.18h39.66c.51,0,.77.26.77.77l.19,21.86c0,.52-.26.77-.77.77h-39.86v33.86h39.86c.51,0,.77.32.77.97v22.06c0,.52-.26.77-.77.77h-62.49Z"/><path d="M554.07,147.51l23.99-132.92c.13-.51.45-.77.97-.77h28.05c.51,0,.84.26.97.77l23.02,132.92c.13.65-.13.97-.77.97h-21.48c-.52,0-.84-.32-.97-.97l-2.13-14.12h-26.31l-2.13,14.12c-.13.65-.45.97-.97.97h-21.48c-.52,0-.77-.32-.77-.97ZM583.28,112.68h18.57l-7.93-54.37-1.16-7.16-.77,7.16-8.71,54.37Z"/><path d="M636.77,148.48c-1.03,0-1.55-.45-1.55-1.35l-.19-131.76c0-1.03.51-1.55,1.55-1.55h17.41l32.7,76.23-.97-74.68c0-1.03.58-1.55,1.74-1.55h19.16c.77,0,1.16.52,1.16,1.55l.19,131.95c0,.77-.32,1.16-.97,1.16h-17.03l-33.47-71.2,1.35,69.65c0,1.03-.58,1.55-1.74,1.55h-19.35Z"/><path d="M818.49,16c20.95,0,38,17.05,38,38v54.29c0,20.95-17.05,38-38,38h-12.81c-20.95,0-38-17.05-38-38v-54.29c0-20.95,17.05-38,38-38h12.81M818.49,0h-12.81c-29.82,0-54,24.18-54,54v54.29c0,29.82,24.18,54,54,54h12.81c29.82,0,54-24.18,54-54v-54.29c0-29.82-24.18-54-54-54h0Z"/></g></svg>