<svg xmlns="http://www.w3.org/2000/svg" width="206.813" height="31" viewBox="0 0 206.813 31">
  <g id="logo-green-bean_nero_-_orizzontale_nero_-_orizzontale" data-name="logo-green-bean_nero - orizzontale_nero - orizzontale" transform="translate(-81.14 -73.01)">
    <g id="Raggruppa_5" data-name="Raggruppa 5" transform="translate(81.14 73.01)">
      <path id="Tracciato_1" data-name="Tracciato 1" d="M89.57,104.007a7.93,7.93,0,0,1-4.236-1.167,8.8,8.8,0,0,1-3.047-3.134,8.556,8.556,0,0,1-1.147-4.388V81.612a8.379,8.379,0,0,1,1.147-4.3,8.771,8.771,0,0,1,3.07-3.134,7.968,7.968,0,0,1,4.217-1.167,8.36,8.36,0,0,1,7.348,4.239,8.555,8.555,0,0,1,1.124,4.368v1.99c0,.115-.073.174-.216.174H92.986a.154.154,0,0,1-.174-.174V81.966a4.019,4.019,0,0,0-.93-2.724,2.936,2.936,0,0,0-2.313-1.082A2.976,2.976,0,0,0,87.341,79.2a3.423,3.423,0,0,0-.973,2.42V95.324a3.456,3.456,0,0,0,.95,2.443,2.979,2.979,0,0,0,2.249,1.018,3.039,3.039,0,0,0,2.313-1,3.479,3.479,0,0,0,.93-2.465V93.2H89.784a.191.191,0,0,1-.216-.216V88.145a.191.191,0,0,1,.216-.216h8.085c.115,0,.174.073.174.216v7.177A8.548,8.548,0,0,1,96.9,99.709a8.826,8.826,0,0,1-3.047,3.134,8.016,8.016,0,0,1-4.281,1.167Z" transform="translate(-81.14 -73.01)"/>
      <path id="Tracciato_2" data-name="Tracciato 2" d="M152.374,104.775c-.115,0-.174-.07-.174-.216l.087-29.7a.154.154,0,0,1,.174-.174H161.2a8.38,8.38,0,0,1,4.3,1.147,8.771,8.771,0,0,1,3.134,3.07,8.778,8.778,0,0,1,.692,7.222A8.9,8.9,0,0,1,168.2,88.28a7.514,7.514,0,0,1-1.167,1.318,8.815,8.815,0,0,1,2.336,6.1l.042,8.863a.192.192,0,0,1-.216.216h-4.886c-.115,0-.174-.042-.174-.129V95.7a3.769,3.769,0,0,0-1.1-2.7,3.6,3.6,0,0,0-2.7-1.147h-2.853l-.042,12.711c0,.143-.059.216-.174.216Zm5.1-18.117H161.2a3.338,3.338,0,0,0,2.378-1,3.228,3.228,0,0,0,1.037-2.42,3.177,3.177,0,0,0-1.015-2.378,3.318,3.318,0,0,0-2.4-1h-3.719v6.789Z" transform="translate(-132.225 -74.211)"/>
      <path id="Tracciato_3" data-name="Tracciato 3" d="M226.5,104.775c-.115,0-.174-.07-.174-.216l.042-29.7a.154.154,0,0,1,.174-.174h13.878c.115,0,.174.073.174.216V79.74a.155.155,0,0,1-.174.174h-8.863v6.746h8.863a.155.155,0,0,1,.174.174l.042,4.886a.155.155,0,0,1-.174.174h-8.908v7.567h8.908c.115,0,.174.073.174.216v4.931a.155.155,0,0,1-.174.174H226.5Z" transform="translate(-185.517 -74.211)"/>
      <path id="Tracciato_4" data-name="Tracciato 4" d="M291.114,104.775c-.115,0-.174-.07-.174-.216l.042-29.7a.154.154,0,0,1,.174-.174h13.878c.115,0,.174.073.174.216V79.74a.155.155,0,0,1-.174.174h-8.863v6.746h8.863a.155.155,0,0,1,.174.174l.042,4.886a.155.155,0,0,1-.174.174h-8.908v7.567h8.908c.115,0,.174.073.174.216v4.931a.155.155,0,0,1-.174.174H291.111Z" transform="translate(-231.965 -74.211)"/>
      <path id="Tracciato_5" data-name="Tracciato 5" d="M355.938,104.775q-.346,0-.346-.3l-.042-29.446a.306.306,0,0,1,.346-.346h3.89l7.306,17.035-.216-16.689q0-.346.388-.346h4.281c.174,0,.259.115.259.346l.042,29.488c0,.174-.073.259-.216.259h-3.806l-7.48-15.91.3,15.565q0,.346-.388.346h-4.323Z" transform="translate(-278.413 -74.211)"/>
      <path id="Tracciato_6" data-name="Tracciato 6" d="M449.844,104.775c-.115,0-.174-.07-.174-.216l.087-29.7a.154.154,0,0,1,.174-.174h8.3a8.3,8.3,0,0,1,4.411,1.189A8.789,8.789,0,0,1,465.713,79a8.308,8.308,0,0,1,1.124,4.236,7.3,7.3,0,0,1-.843,3.458,8.667,8.667,0,0,1-2.01,2.595,9.019,9.019,0,0,1,1.945,2.9,8.829,8.829,0,0,1,.692,3.458,8.927,8.927,0,0,1-1.212,4.582,9.227,9.227,0,0,1-3.264,3.309,8.7,8.7,0,0,1-4.562,1.231h-7.739ZM454.9,99.5h2.682a3.629,3.629,0,0,0,2.682-1.147,3.727,3.727,0,0,0,1.124-2.7,3.839,3.839,0,0,0-3.806-3.806h-2.637l-.042,7.652Zm.042-12.886h3.286a3.088,3.088,0,0,0,2.443-1.06,3.44,3.44,0,0,0,.93-2.313,3.319,3.319,0,0,0-1-2.4,3.211,3.211,0,0,0-2.378-1.015h-3.286Z" transform="translate(-346.075 -74.211)"/>
      <path id="Tracciato_7" data-name="Tracciato 7" d="M521.214,104.775c-.115,0-.174-.07-.174-.216l.042-29.7a.154.154,0,0,1,.174-.174h13.878c.115,0,.174.073.174.216V79.74a.155.155,0,0,1-.174.174h-8.863v6.746h8.863a.155.155,0,0,1,.174.174l.042,4.886a.155.155,0,0,1-.174.174h-8.908v7.567h8.908c.115,0,.174.073.174.216v4.931a.155.155,0,0,1-.174.174H521.211Z" transform="translate(-397.383 -74.211)"/>
      <path id="Tracciato_8" data-name="Tracciato 8" d="M578.873,104.558l5.361-29.7a.205.205,0,0,1,.216-.174h6.269a.207.207,0,0,1,.216.174l5.144,29.7c.028.143-.028.216-.174.216h-4.8c-.115,0-.188-.07-.216-.216l-.475-3.157h-5.881l-.475,3.157c-.028.143-.1.216-.216.216h-4.8c-.115,0-.174-.07-.174-.216Zm6.53-7.784h4.152l-1.774-12.149-.259-1.6-.174,1.6Z" transform="translate(-438.957 -74.211)"/>
      <path id="Tracciato_9" data-name="Tracciato 9" d="M650.178,104.775q-.346,0-.346-.3l-.042-29.446a.306.306,0,0,1,.346-.346h3.891l7.306,17.035-.216-16.689q0-.346.388-.346h4.281c.174,0,.259.115.259.346l.042,29.488c0,.174-.073.259-.216.259h-3.806l-7.48-15.91.3,15.565q0,.346-.388.346h-4.323Z" transform="translate(-489.941 -74.211)"/>
    </g>
    <g id="Raggruppa_6" data-name="Raggruppa 6" transform="translate(267.494 74.871)">
      <path id="Tracciato_10" data-name="Tracciato 10" d="M754.329,107.108q-4.874,0-7.562-2.513a8.785,8.785,0,0,1-2.687-6.735V88.954a9.521,9.521,0,0,1,1.209-4.855,8.412,8.412,0,0,1,3.494-3.28,11.888,11.888,0,0,1,5.546-1.189,11.765,11.765,0,0,1,5.526,1.189,8.444,8.444,0,0,1,3.474,3.28,9.521,9.521,0,0,1,1.209,4.855V97.86a8.812,8.812,0,0,1-2.668,6.735Q759.2,107.108,754.329,107.108Zm0-3.148a7.334,7.334,0,0,0,5.085-1.67,5.8,5.8,0,0,0,1.861-4.548V89.067a5.926,5.926,0,0,0-1.861-4.588,7.241,7.241,0,0,0-5.085-1.709,7.343,7.343,0,0,0-5.125,1.709,5.916,5.916,0,0,0-1.861,4.588v8.675a5.8,5.8,0,0,0,1.861,4.548A7.4,7.4,0,0,0,754.329,103.959Z" transform="translate(-744.08 -79.63)"/>
      <path id="Tracciato_11" data-name="Tracciato 11" d="M769.071,115.786a4.18,4.18,0,0,1-2.232-.616,4.634,4.634,0,0,1-1.605-1.65,4.515,4.515,0,0,1-.6-2.311v-7.219a4.4,4.4,0,0,1,.6-2.266,4.617,4.617,0,0,1,1.616-1.65,4.19,4.19,0,0,1,2.221-.616,4.407,4.407,0,0,1,3.871,2.232,4.526,4.526,0,0,1,.593,2.3v1.049c0,.062-.039.09-.112.09h-2.55a.079.079,0,0,1-.09-.09v-.866a2.121,2.121,0,0,0-.489-1.434,1.542,1.542,0,0,0-1.217-.568,1.568,1.568,0,0,0-1.172.545,1.8,1.8,0,0,0-.512,1.276v7.219a1.816,1.816,0,0,0,.5,1.287,1.568,1.568,0,0,0,1.183.534,1.6,1.6,0,0,0,1.217-.523,1.828,1.828,0,0,0,.489-1.3V110.1h-1.594a.1.1,0,0,1-.112-.112v-2.55a.1.1,0,0,1,.112-.112h4.259c.062,0,.09.039.09.112v3.781a4.507,4.507,0,0,1-.6,2.311,4.632,4.632,0,0,1-1.605,1.65,4.223,4.223,0,0,1-2.254.616Z" transform="translate(-758.853 -93.886)"/>
    </g>
  </g>
</svg>
